<?xml version="1.0" encoding="utf-8"?>
<!-- Generator: Adobe Illustrator 18.1.0, SVG Export Plug-In . SVG Version: 6.00 Build 0)  -->
<svg version="1.1" id="Layer_1" xmlns="http://www.w3.org/2000/svg" xmlns:xlink="http://www.w3.org/1999/xlink" x="0px" y="0px"
	 viewBox="0 0 2000 2000" enable-background="new 0 0 2000 2000" xml:space="preserve">
<g>
	<path fill="#3E4450" d="M814,1488.8c-271.4-150.2-372.5-502-222.3-773.5c150.2-271.3,501.9-372.4,773.3-222.2
		c75.6,41.8,137.4,99.6,184.9,166.7c-55.3-87.2-132.6-162.2-229.4-215.8c-308-170.5-695.8-58.9-866.4,249.1
		c-170.4,308-59,695.8,248.9,866.3c308.1,170.4,695.9,58.9,866.4-249c17.2-31.1,31.4-63.1,43.1-95.6c-7.5,17.5-16,34.8-25.3,51.6
		C1437.2,1537.9,1085.5,1639,814,1488.8z"/>
	<path fill="#3E4450" d="M1622.3,1089.5c-27.6-15.3-62.2-5.3-77.5,22.4c-15.3,27.6-5.3,62.2,22.2,77.5c27.7,15.3,62.4,5.3,77.6-22.2
		C1659.8,1139.5,1649.9,1104.8,1622.3,1089.5z"/>
	<path fill="#3E4450" d="M1591.4,1032.8c15.6,8.6,35,2.8,43.6-12.7c8.6-15.6,3.2-35.1-12.4-43.7c-15.7-8.7-35.4-3.1-44,12.5
		C1570.2,1004.4,1575.7,1024.1,1591.4,1032.8z"/>
	<path fill="#3E4450" d="M1593.8,920.6c7.1,4,16.3,1.4,20.1-5.8c4-7.2,1.4-16.2-5.9-20.2c-7.1-3.9-16.1-1.3-20.1,5.9
		C1583.9,907.5,1586.6,916.7,1593.8,920.6z"/>
	<path fill="#3E4450" d="M313.3,343H313v257.7c0,15.7-10.6,28.4-21.1,28.4c-10.4,0-20-12.8-20-28.4c0,0-9.8-264.5-16.4-264.5
		c-6.7,0-16.9,288.9-16.9,288.9c0,15.8-8.6,28.4-19,28.4c-10.6,0-19.2-12.7-19.2-28.4c0,0-9.7-288.9-16.5-288.9
		c-6.7,0-15.9,272.6-15.9,272.6c0,15.8-8.5,28.6-18.9,28.6c-10.6,0-19-12.8-19-28.6V343h-4.5c-6.4,25-15.3,61.2-15.3,96.2
		l-7.4,234.4c0,63.4,12,112.4,51.5,137.8c9.4,7.9,36.7,26.8,36.7,52.2v763.7c0,24.9,18.5,45,37,45c18.5,0,37-20.1,37-45V863
		c0-15,12.8-33.8,28.2-54.7c33.4-27.9,43.3-77.2,43.3-134.4l-11.2-238.6C325.3,400.1,321.4,380,313.3,343z"/>
	<path fill="#3E4450" d="M1772.2,375.1c-75.7,0-137.3,106-137.3,236.8c0,98.8,35.3,183.3,85.1,218.9c1.2,1.3,1.8,2.6,3.2,3.7
		c7.2,7.5,29.8,24.7,29.8,48.3v708.8c0,23.1,9.5,41.8,23.9,41.8c14.2,0,24.1-18.8,24.1-41.8V882.3c13-14,12.9-31.5,24.9-50.7
		c3.6-3.5,7.8-7.5,10.7-11.7c42.7-40.2,72.2-118.3,72.2-208C1908.8,481.1,1848,375.1,1772.2,375.1z"/>
	<path fill="#00A595" d="M1112.1,762.7c-6.3,2.1-12.6,4.4-19,6.7C1099.5,767.1,1105.8,764.9,1112.1,762.7z"/>
	<path fill="#00A595" d="M1082.7,773.2c-6.2,2.3-12.4,4.7-18.6,7.2C1070.3,778,1076.5,775.5,1082.7,773.2z"/>
	<path fill="#00A595" d="M1382.8,707.5c-1.1,0.1-2.2,0.2-3.3,0.3C1380.6,707.7,1381.7,707.6,1382.8,707.5z"/>
	<path fill="#00A595" d="M839.7,916c-4.5,4.1-8.9,8.3-13.4,12.5C830.8,924.4,835.2,920.1,839.7,916z"/>
	<path fill="#00A595" d="M672.3,1166.2c-1.6,4.5-3.4,8.9-4.9,13.5C668.9,1175.1,670.7,1170.7,672.3,1166.2z"/>
	<path fill="#00A595" d="M801.9,953.1c4.1-4.4,8.2-8.8,12.4-13C810.1,944.4,806,948.8,801.9,953.1z"/>
	<path fill="#00A595" d="M910.5,861c-20.4,13.8-40.2,28.9-59.4,45.2C870.3,889.9,890.1,874.9,910.5,861z"/>
	<path fill="#00A595" d="M655.2,1220.4c-0.7,6.1-1.1,11.9-1.4,17.5C654,1232.3,654.5,1226.5,655.2,1220.4z"/>
	<path fill="#00A595" d="M688.2,1125.9c-2.2,5.1-4.5,10.1-6.6,15.3C683.7,1136,686,1131,688.2,1125.9z"/>
	<path fill="#00A595" d="M1242.3,727.9c-23.3,4.8-47.4,10.4-72,17.1C1194.9,738.2,1219,732.6,1242.3,727.9z"/>
	<path fill="#00A595" d="M766.8,993.8c-3.6,4.6-7.2,9.4-10.7,14.1C759.6,1003.2,763.1,998.5,766.8,993.8z"/>
	<path fill="#00A595" d="M789.9,966.1c-3.9,4.4-7.7,9-11.6,13.5C782.2,975.1,786,970.5,789.9,966.1z"/>
	<path fill="#00A595" d="M705.6,1089.3c-2.6,5.1-5.3,10.2-7.9,15.5C700.2,1099.5,702.9,1094.5,705.6,1089.3z"/>
	<path fill="#00A595" d="M744.9,1023.6c-3.3,4.8-6.6,9.7-9.8,14.7C738.3,1033.3,741.6,1028.4,744.9,1023.6z"/>
	<path fill="#00A595" d="M1170.2,745c-7,1.9-14,4-21.1,6.1C1156.2,749,1163.3,746.9,1170.2,745z"/>
	<path fill="#00A595" d="M724.5,1055.3c-3,5-6,10-8.9,15.2C718.5,1065.4,721.5,1060.3,724.5,1055.3z"/>
	<path fill="#00A595" d="M1141.4,753.3c-6.5,2-13.1,4.1-19.6,6.2C1128.3,757.4,1134.8,755.3,1141.4,753.3z"/>
	<path fill="#00A595" d="M1267,723.1c-5,0.9-9.9,1.8-15,2.8C1257.1,724.9,1262,724,1267,723.1z"/>
	<path fill="#00A595" d="M1023.7,797.7c-6.1,2.8-12.1,5.6-18.1,8.5C1011.6,803.3,1017.7,800.5,1023.7,797.7z"/>
	<path fill="#00A595" d="M1339.8,712c-3.1,0.4-6.1,0.8-9.3,1.2C1333.6,712.8,1336.7,712.4,1339.8,712z"/>
	<path fill="#00A595" d="M651.2,1196.6c109.7-413.8,534.7-497.5,735.5-513.7c-85.1-87.9-204-142.8-336.1-142.8
		c-258.3,0-467.8,209.5-467.8,467.9c0,88,24.9,170,67.2,240.3C648.8,1233.4,649,1216.3,651.2,1196.6z"/>
	<path fill="#00A595" d="M1316.4,715.1c-3.8,0.5-7.5,1.1-11.3,1.6C1308.9,716.2,1312.7,715.6,1316.4,715.1z"/>
	<path fill="#00A595" d="M1292.1,718.8c-4.4,0.7-8.7,1.4-13.2,2.2C1283.4,720.2,1287.7,719.5,1292.1,718.8z"/>
	<path fill="#00A595" d="M653.7,1238.4c-0.3,5.5-0.4,10.7-0.4,15.7c0,0,0,0,0,0C653.3,1249,653.5,1243.8,653.7,1238.4z"/>
	<path fill="#00A595" d="M965.6,827.1c-6,3.3-12,6.7-17.9,10.2C953.6,833.8,959.6,830.4,965.6,827.1z"/>
	<path fill="#00A595" d="M994.5,811.8c-6,3-12,6.1-18,9.3C982.5,817.9,988.5,814.8,994.5,811.8z"/>
	<path fill="#00A595" d="M1053.2,784.8c-6.1,2.5-12.2,5.1-18.3,7.8C1041,790,1047.1,787.4,1053.2,784.8z"/>
	<path fill="#00A595" d="M937.3,843.7c-6,3.7-12,7.4-17.9,11.2C925.3,851.1,931.3,847.4,937.3,843.7z"/>
	<path fill="#00A595" d="M1362,709.5c-2.3,0.2-4.5,0.5-6.8,0.7C1357.5,710,1359.7,709.7,1362,709.5z"/>
	<path fill="#A4C439" d="M1518.6,1008c0-97.4-29.9-187.8-80.7-262.6c-20.9,20-43.6,48.2-62.4,87.4c-47.5,99.5-64.9,321.2-199,499.5
		c-62.2,82.4-134.3,121.3-199.8,137.2c24.1,3.9,48.8,6.4,73.9,6.4C1309.2,1475.8,1518.6,1266.4,1518.6,1008z"/>
	<path fill="#A4C439" d="M877.5,1379.5c174.5-63,252.3-231.7,267.6-259.3c7.9-14.9,20.3-42.3,33.5-75
		c12.5-33.3,27.4-68.9,46.6-102.8c36.1-67.6,75.3-124.3,75.3-124.1c0,0-45.9,51.4-89.8,115.5c-22.5,31-42.9,68.6-58,99.8
		c-16,31.1-30,56.8-37.5,71.1c-7.8,14-30.4,59-73.4,107.3c-21.8,24.5-47.3,48.1-79.2,72.9c-27.2,23-61.8,39.5-98.5,49.3
		c-45.7,12-92.9,14.3-135.6,12.7c19.2,18.4,39.8,35.2,61.9,50.1C818.9,1393.7,848.1,1388.4,877.5,1379.5z"/>
	<path fill="#A4C439" d="M653.7,1238.4c0-0.2,0-0.3,0-0.5c0.3-5.6,0.8-11.4,1.4-17.5c3.7-14,7.8-27.5,12.2-40.7
		c1.5-4.6,3.3-8.9,4.9-13.5c3-8.5,6-16.9,9.3-25.1c2.1-5.2,4.4-10.2,6.6-15.3c3.1-7.1,6.2-14.2,9.5-21.1c2.5-5.3,5.2-10.4,7.9-15.5
		c3.3-6.3,6.6-12.7,10-18.8c2.9-5.2,5.9-10.2,8.9-15.2c3.5-5.8,7-11.5,10.6-17.1c3.2-5,6.5-9.9,9.8-14.7c3.6-5.3,7.4-10.5,11.1-15.6
		c3.5-4.8,7.1-9.5,10.7-14.1c3.8-4.8,7.7-9.5,11.6-14.2c3.8-4.6,7.6-9.1,11.6-13.5c3.9-4.4,8-8.7,12-12.9c4.1-4.4,8.2-8.8,12.4-13
		c4-4,8-7.8,12.1-11.6c4.4-4.2,8.8-8.5,13.4-12.5c3.7-3.4,7.6-6.5,11.4-9.8c19.1-16.3,39-31.4,59.4-45.2c3-2,5.9-4.1,8.9-6.1
		c5.9-3.9,11.9-7.6,17.9-11.2c3.5-2.1,6.9-4.3,10.4-6.4c5.9-3.5,11.9-6.9,17.9-10.2c3.6-2,7.2-4.1,10.9-6c6-3.2,12-6.3,18-9.3
		c3.7-1.9,7.4-3.7,11.1-5.6c6-2.9,12.1-5.8,18.1-8.5c3.7-1.7,7.4-3.4,11.1-5c6.1-2.7,12.2-5.3,18.3-7.8c3.6-1.5,7.3-3,10.9-4.4
		c6.2-2.5,12.4-4.9,18.6-7.2c3.5-1.3,7-2.6,10.5-3.8c6.3-2.3,12.6-4.5,19-6.7c3.2-1.1,6.4-2.1,9.6-3.1c6.5-2.1,13.1-4.3,19.6-6.2
		c2.6-0.8,5.2-1,7.8-1.8c7.1-2.1,14.1-5.6,21.1-5.6c0,0,0,0,0,0c24.6-13,48.7-12.8,72-17.6c3.2-0.7,6.5-1.6,9.7-2.3
		c5.1-1,10-2,15-2.9c4-0.7,8-1.5,11.9-2.2c4.4-0.8,8.8-1.5,13.2-2.2c4.4-0.7,8.7-1.4,13-2.1c3.8-0.6,7.6-1.1,11.3-1.6
		c4.7-0.7,9.5-1.3,14.1-1.9c3.1-0.4,6.2-0.8,9.3-1.2c5.2-0.6,10.4-1.2,15.4-1.8c2.3-0.3,4.6-0.5,6.8-0.7c6-0.6,11.8-1.2,17.5-1.7
		c1.1-0.1,2.2-0.2,3.3-0.3c28.7-2.5,53.2-3.6,72-4.1c21.8-17,38.2-24,38.2-24s-41.5-1.8-106.3,3.4
		c-200.8,16.2-625.8,99.8-735.5,513.7c-2.2,19.7-2.5,36.8-1.2,51.7c0.8,10.2,2.3,19.4,4.4,27.6c-0.7-6.8-1-14.1-1.1-21.8
		C653.3,1249.1,653.4,1243.9,653.7,1238.4z"/>
</g>
</svg>
