<?xml version="1.0" encoding="utf-8"?>
<!-- Generator: Adobe Illustrator 16.0.0, SVG Export Plug-In . SVG Version: 6.00 Build 0)  -->
<!DOCTYPE svg PUBLIC "-//W3C//DTD SVG 1.1//EN" "http://www.w3.org/Graphics/SVG/1.1/DTD/svg11.dtd">
<svg version="1.1" id="Layer_1" xmlns="http://www.w3.org/2000/svg" xmlns:xlink="http://www.w3.org/1999/xlink" x="0px" y="0px"
	 width="100px" height="100px" viewBox="0 0 100 100" enable-background="new 0 0 100 100" xml:space="preserve">
<g>
	<g>
		<linearGradient id="SVGID_1_" gradientUnits="userSpaceOnUse" x1="34.2202" y1="30.3608" x2="4.0753" y2="77.9811">
			<stop  offset="0.3463" style="stop-color:#91C13E"/>
			<stop  offset="1" style="stop-color:#3E8A41"/>
		</linearGradient>
		<path fill="url(#SVGID_1_)" d="M40.667,54.663c-4.596,1.808-9.684,1.063-14.181-1.6c0.32-0.161,0.626-0.342,0.922-0.532
			c0.093-0.062,0.183-0.13,0.273-0.195c0.194-0.132,0.389-0.266,0.568-0.41c0.108-0.083,0.209-0.176,0.313-0.267
			c0.155-0.132,0.314-0.266,0.461-0.405c0.104-0.105,0.202-0.21,0.302-0.314c0.137-0.14,0.27-0.28,0.4-0.428
			c0.094-0.115,0.188-0.231,0.281-0.346c0.116-0.151,0.234-0.299,0.346-0.45c0.086-0.126,0.166-0.252,0.249-0.377
			c0.101-0.155,0.202-0.31,0.295-0.473c0.076-0.133,0.148-0.266,0.22-0.399c0.083-0.166,0.169-0.327,0.245-0.497
			c0.065-0.137,0.122-0.277,0.18-0.417c0.072-0.169,0.138-0.338,0.199-0.511c0.05-0.148,0.097-0.292,0.144-0.439
			c0.054-0.173,0.101-0.349,0.147-0.53c0.037-0.147,0.072-0.295,0.105-0.446c0.036-0.18,0.064-0.36,0.094-0.541
			c0.021-0.15,0.046-0.306,0.065-0.46c0.017-0.18,0.028-0.364,0.039-0.551c0.007-0.151,0.018-0.307,0.018-0.461
			c0.004-0.187-0.007-0.374-0.015-0.564c-0.007-0.151-0.011-0.307-0.021-0.458c-0.018-0.194-0.05-0.392-0.076-0.586
			c-0.021-0.144-0.036-0.292-0.065-0.436c-0.043-0.216-0.097-0.433-0.15-0.648c-0.037-0.122-0.059-0.248-0.094-0.371
			c-0.101-0.338-0.216-0.673-0.353-1.008c-3.028-7.41-16.895-9.604-15.847-17.053c0,0-9.866,11.068-4.217,24.945
			c1.991,4.896,7.093,7.602,12.088,6.63c-3.399-2.669-6.305-6.475-8.134-11.127c-2.052-5.221-2.401-10.572-1.339-15.209
			c-0.212,1.275-0.321,2.6-0.321,3.953c0,0.019-0.004,0.033-0.004,0.05c0,0,0,0.011,0,0.018c0.004,0.342,0.007,0.685,0.022,1.031
			c0.007,0.143,0.018,0.284,0.028,0.428c0.007,0.173,0.018,0.346,0.029,0.522c0.007,0.072,0.011,0.144,0.015,0.216
			c0.007,0.065,0.019,0.126,0.025,0.191c0.234,2.463,0.818,4.983,1.801,7.475c1.004,2.557,2.336,4.857,3.892,6.855
			c0.011,0.015,0.022,0.029,0.033,0.043c0.007,0.007,0.01,0.015,0.018,0.022c1.603,2.045,3.45,3.774,5.434,5.124
			c0.006-0.004,0.018-0.007,0.028-0.012c1.17,0.794,2.387,1.471,3.637,1.988c4.991,1.609,10.534,0.742,14.768-2.535
			C42.64,53.716,41.697,54.253,40.667,54.663z"/>
		<g>
			<path fill="#BE1E2D" d="M40.681,50.568l32.299,4.559c1.194-9.243-2.01-17.989-7.879-24.37
				c8.699,4.861,14.014,14.612,12.688,25.051l4.587,0.647c1.858-13.179-7.021-25.392-19.983-27.794l0.007-0.065l0,0l0.23-1.588
				c0.497,0.072,1.001,0.141,1.498,0.212c0.685,0.08,1.095-0.353,0.922-0.954c-0.173-0.613-0.677-1.333-1.152-1.545
				c-1.268-0.515-2.636-0.709-3.997-0.565c-0.518,0.076-1.202,0.626-1.533,1.167c-0.339,0.526-0.065,1.059,0.611,1.17
				c0.505,0.072,1.002,0.144,1.506,0.212l-0.23,1.653c-13.114-1.282-25.034,7.993-26.896,21.172L40.681,50.568L40.681,50.568z"/>
			<path fill="#BE1E2D" d="M84.02,58.166H40.271h-8.975c-0.597,0-1.077,0.483-1.077,1.08c0,0.588,0.479,1.077,1.077,1.077h9.119
				H84.02c0.597,0,1.073-0.489,1.073-1.077C85.093,58.649,84.616,58.166,84.02,58.166z"/>
		</g>
	</g>
	<g>
		<path fill="#861719" d="M90.393,58.185c-21.309,14.68-44.166,14.67-65.466-0.019c0.652,2.107,0.983,3.15,1.653,5.229
			c0.029,0.091,0.029,0.166,0,0.216c-0.67,1.087-1.001,1.624-1.653,2.684c21.3,14.687,44.15,14.696,65.459,0.018
			c-0.648-1.06-0.987-1.596-1.649-2.683c-0.036-0.048-0.036-0.123,0-0.217C89.406,61.336,89.737,60.291,90.393,58.185z"/>
	</g>
</g>
</svg>
